<svg width="576" height="512" xmlns="http://www.w3.org/2000/svg">

 <g>
  <title>background</title>
  <rect fill="none" id="canvas_background" height="402" width="582" y="-1" x="-1"/>
 </g>
 <g>
  <title>Layer 1</title>
  <path fill="#55cad9" id="svg_1" d="m400,128c-5.595,0 -10.845,1.125 -16.312,1.656c-36.813,-58.5 -101.469,-97.656 -175.688,-97.656c-114.875,0 -208,93.125 -208,208l0,32c0,109.406 84.75,199.719 192,208l224,0c89.594,-8.188 160,-84.281 160,-176c0,-97.188 -78.812,-176 -176,-176zm16,288l-224,0c-17.906,-2 -34.656,-8.75 -49.97,-16.688c-0.312,-0.156 -0.594,-0.345 -0.905,-0.5c-7.156,-3.781 -13.938,-8.031 -20.312,-12.938c-0.938,-0.688 -1.78,-1.469 -2.688,-2.188c-5.625,-4.53 -11,-9.312 -15.906,-14.655c-1.562,-1.656 -2.875,-3.531 -4.344,-5.281c-3.97,-4.749 -7.875,-9.562 -11.22,-14.812c-1.969,-3.062 -3.469,-6.375 -5.188,-9.562c-2.406,-4.5 -4.938,-8.844 -6.844,-13.594c-2,-4.845 -3.25,-10 -4.688,-15.095c-1.031,-3.594 -2.375,-7 -3.125,-10.719c-1.779,-9.03 -2.81,-18.374 -2.81,-27.968l0,-32c0,-79.531 64.469,-144 144,-144c10.75,0 21.155,1.375 31.25,3.625c2.062,0.469 4,1.312 6.03,1.875c8.188,2.188 16.125,4.938 23.656,8.469c1.281,0.625 2.469,1.375 3.75,2.031c8.281,4.188 16.031,9.125 23.312,14.781c0.344,0.281 0.688,0.562 1.062,0.844c24.531,19.5 42.562,46.531 50.312,77.938c15.69,-8.501 33.503,-13.563 52.628,-13.563c61.844,0 112,50.156 112,112c0,56.375 -41.781,104.188 -96,112z"/>
 </g>
</svg>