<svg width="229" height="51">
        <defs id="SvgjsDefs9330"></defs>
        <g id="SvgjsG9331" featurekey="root" fill="#ffffff"></g>
        <g id="SvgjsG9332" featurekey="symbol1" fill="#55cad9" transform="matrix(0.5249999999999999,0,0,0.5249999999999999,21,7)">
          <path xmlns="http://www.w3.org/2000/svg" fill="#55cad9" d="M36.363,72.726C16.281,72.726,0,56.447,0,36.364C0,16.279,16.281,0,36.363,0  c13.648,0,25.523,7.528,31.743,18.646c1.51-0.257,3.041-0.466,4.622-0.466C87.791,18.18,100,30.393,100,45.455  c0,15.059-12.209,27.271-27.271,27.271C66.42,72.726,43.633,72.726,36.363,72.726z M72.729,63.634  c10.042,0,18.184-8.143,18.184-18.18c0-10.041-8.142-18.183-18.184-18.183c-3.639,0-7.006,1.093-9.852,2.935  C60.08,18.123,49.3,9.09,36.363,9.09C21.303,9.09,9.092,21.3,9.092,36.364c0,15.062,12.211,27.271,27.271,27.271  C44.585,63.634,65.864,63.634,72.729,63.634z">
          </path>
        </g>
        <g id="SvgjsG9333" featurekey="text1" fill="#55cad9" transform="matrix(1.1779888369190719,0,0,1.1779888369190719,82.55236421248104,2.4608718930850193)">
          <path d="M0.38 6.4 l2.9 0 l1.68 11.24 l0.3 0 l2.44 -11.24 l3.2 0 l2.44 11.24 l0.3 0 l1.68 -11.24 l2.9 0 l-2.6 13.6 l-4.18 0 l-2.14 -10.34 l-2.14 10.34 l-4.18 0 z M27.5 13.120000000000001 l0 4.16 c0.04 0.6 0.12 0.84 0.66 0.94 l-0.08 2.02 c-1.34 0 -2.02 -0.14 -2.86 -0.7 c0 0 -1.44 0.7 -2.94 0.7 c-2.1 0 -3.1 -1.16 -3.1 -3.28 c0 -2.26 1.3 -2.9 3.5 -3.06 l2.14 -0.16 l0 -0.62 c0 -0.86 -0.38 -1.08 -1.18 -1.08 c-1.32 0 -3.76 0.16 -3.76 0.16 l-0.08 -1.86 s2.14 -0.58 4.06 -0.58 c2.6 0 3.64 1.02 3.64 3.36 z M24.82 15.6 l-1.82 0.16 c-0.7 0.06 -1.12 0.4 -1.12 1.12 c0 0.7 0.26 1.18 0.98 1.18 c0.86 0 1.96 -0.32 1.96 -0.32 l0 -2.14 z M34.38 24.6 c-2.92 0 -4.82 -0.54 -4.82 -2.78 c0 -0.92 0.44 -1.6 1.44 -2.38 c-0.44 -0.3 -0.74 -0.9 -0.74 -1.52 c0 -0.5 0.78 -1.6 0.78 -1.6 c-0.7 -0.5 -1.36 -1.24 -1.36 -2.98 c0 -2.58 1.86 -3.54 4.2 -3.54 c0.88 0 2.02 0.26 2.02 0.26 l3.22 -0.1 l0 2.14 l-1.5 -0.12 c0.18 0.28 0.44 0.78 0.44 1.36 c0 2.8 -1.48 3.52 -4.22 3.52 c-0.22 0 -0.64 -0.04 -0.82 -0.08 c0 0 -0.2 0.52 -0.2 0.78 c0 0.52 0.24 0.64 1.94 0.66 c3.4 0.02 4.36 0.78 4.36 3.02 c0 2.44 -2.16 3.36 -4.74 3.36 z M34.54 20.54 c-0.56 0 -1.8 -0.14 -1.8 -0.14 c-0.34 0.34 -0.54 0.64 -0.54 1.14 c0 0.58 0.7 0.86 2.2 0.86 c1.3 0 2.02 -0.28 2.02 -1 c0 -0.76 -0.4 -0.84 -1.88 -0.86 z M33.9 14.82 c1.08 0 1.52 -0.54 1.52 -1.48 s-0.44 -1.46 -1.52 -1.46 s-1.54 0.52 -1.54 1.46 s0.46 1.48 1.54 1.48 z M43.42 20 l-2.68 0 l0 -10 l2.66 0 l0 0.56 s1.36 -0.8 2.5 -0.8 c2.8 0 3.52 1.76 3.52 4.82 l0 5.42 l-2.68 0 l0 -5.34 c0 -1.52 -0.2 -2.5 -1.5 -2.5 c-0.94 0 -1.82 0.36 -1.82 0.36 l0 7.48 z M56.02 17.88 c1.64 0 3.7 -0.18 3.7 -0.18 l0.04 1.98 s-2.3 0.56 -4.16 0.56 c-3.02 0 -4.3 -1.5 -4.3 -5.1 c0 -3.56 1.5 -5.38 4.42 -5.38 c2.94 0 4.36 1.5 4.36 4.52 l-0.2 1.86 l-5.88 0 c0.02 1.2 0.58 1.74 2.02 1.74 z M53.980000000000004 14.1 l3.46 0 c0 -1.62 -0.46 -2.14 -1.72 -2.14 c-1.28 0 -1.72 0.62 -1.74 2.14 z M62.00000000000001 20 l0 -10 l2.66 0 l0 1.06 s1.68 -1 3.2 -1.3 l0 2.7 c-1.76 0.34 -3.18 0.84 -3.18 0.84 l0 6.7 l-2.68 0 z  M81.82000000000001 20 l-7.74 0 l0 -13.6 l2.76 0 l0 11.16 l4.98 0 l0 2.44 z M87.36000000000001 9.76 c3.48 0 4.6 2.14 4.6 5.22 s-1.12 5.26 -4.6 5.26 s-4.6 -2.18 -4.6 -5.26 s1.12 -5.22 4.6 -5.22 z M87.36000000000001 17.96 c1.48 0 1.88 -1.04 1.88 -2.98 s-0.4 -2.94 -1.88 -2.94 s-1.88 1 -1.88 2.94 s0.4 2.98 1.88 2.98 z M93.92 24.2 l0 -14.2 l2.66 0 l0 0.54 s1.3 -0.78 2.28 -0.78 c2.64 0 3.94 1.44 3.94 5.16 c0 4.26 -1.48 5.32 -4.54 5.32 c-0.74 0 -1.66 -0.16 -1.66 -0.16 l0 4.12 l-2.68 0 z M98.34 12.16 c-0.82 0 -1.74 0.4 -1.74 0.4 l0 5.24 s0.9 0.12 1.46 0.12 c1.6 0 2.02 -0.88 2.02 -3 c0 -2.02 -0.68 -2.76 -1.74 -2.76 z M109.02 17.88 c1.64 0 3.7 -0.18 3.7 -0.18 l0.04 1.98 s-2.3 0.56 -4.16 0.56 c-3.02 0 -4.3 -1.5 -4.3 -5.1 c0 -3.56 1.5 -5.38 4.42 -5.38 c2.94 0 4.36 1.5 4.36 4.52 l-0.2 1.86 l-5.88 0 c0.02 1.2 0.58 1.74 2.02 1.74 z M106.98 14.1 l3.46 0 c0 -1.62 -0.46 -2.14 -1.72 -2.14 c-1.28 0 -1.72 0.62 -1.74 2.14 z M122.22 10.28 l-0.04 2.22 s-2.48 -0.32 -3.64 -0.32 s-1.4 0.26 -1.4 0.8 c0 0.46 0.38 0.56 2.22 0.9 c2.32 0.42 3.14 1.1 3.14 3.12 c0 2.34 -1.52 3.24 -4.02 3.24 c-1.48 0 -3.84 -0.48 -3.84 -0.48 l0.08 -2.24 s2.48 0.32 3.5 0.32 c1.28 0 1.62 -0.26 1.62 -0.78 c0 -0.44 -0.22 -0.64 -2.06 -0.94 c-2.16 -0.36 -3.3 -0.88 -3.3 -3.08 c0 -2.32 1.76 -3.26 3.86 -3.26 c1.44 0 3.88 0.5 3.88 0.5 z">
          </path>
        </g>
        <g id="SvgjsG9334" featurekey="text3" fill="#55cad9" transform="matrix(0.5368161583042077,0,0,0.5368161583042077,82.6242286955864,33.30366102167035)">
          <path d="M0.7 13.3 l3.16 0 c0 0.68 -0.04 2.74 2.62 2.74 c1.68 0 2.74 -0.8 2.74 -2.02 c0 -1.28 -0.9 -1.5 -2.74 -1.94 c-3.44 -0.86 -5.32 -1.88 -5.32 -4.38 c0 -2.38 1.7 -4.48 5.72 -4.48 c1.5 0 3.28 0.34 4.36 1.7 c0.82 1.04 0.82 2.2 0.82 2.68 l-2.98 0 c-0.04 -0.5 -0.2 -2.2 -2.34 -2.2 c-1.44 0 -2.38 0.78 -2.38 1.96 c0 1.34 1.06 1.58 3.14 2.1 c2.5 0.6 4.96 1.28 4.96 4.1 c0 2.6 -2.16 4.7 -6.16 4.7 c-5.54 0 -5.58 -3.56 -5.6 -4.96 z M14.18 10.900000000000002 c0 -3.84 1.74 -7.74 6.94 -7.74 c1.54 0 3.66 0.36 5.08 1.96 c1.54 1.76 1.84 4.02 1.84 5.44 c0 2.1 -0.64 4.34 -1.82 5.66 c-1.6 1.8 -3.94 2.06 -5.14 2.06 c-1.9 0 -3.8 -0.6 -5.12 -1.98 c-1.58 -1.68 -1.78 -4.08 -1.78 -5.4 z M17.42 10.8 c0 1.38 0.22 2.92 1.08 4.04 c0.44 0.6 1.18 1.16 2.62 1.16 c1.26 0 2.12 -0.44 2.7 -1.34 c0.48 -0.72 0.98 -1.84 0.98 -4.14 c0 -0.7 -0.06 -1.7 -0.36 -2.58 c-0.6 -1.78 -1.82 -2.56 -3.3 -2.56 c-1.16 0 -2.08 0.48 -2.66 1.22 c-0.82 1 -1.06 2.56 -1.06 4.2 z M30.279999999999998 17.92 l0 -14.44 l9.32 0 l0 2.32 l-6.22 0 l0 3.56 l5.8 0 l0 2.4 l-5.8 0 l0 6.16 l-3.1 0 z M44.599999999999994 17.92 l0 -12.06 l-4.3 0 l0 -2.4 l11.72 0 l0 2.4 l-4.3 0 l0 12.06 l-3.12 0 z M52.53999999999999 3.5200000000000014 l3.2 0 l2.24 10.82 l2.82 -10.82 l3.5 0 l2.54 10.82 l2.34 -10.82 l2.96 0 l-3.68 14.44 l-3.44 0 l-2.62 -11.04 l-2.82 11.04 l-3.52 0 z M77.56 3.460000000000001 l3.68 0 l5.02 14.46 l-3.12 0 l-1.04 -3.12 l-5.72 0 l-1.08 3.12 l-2.96 0 z M77.17999999999999 12.46 l4.14 0 l-2 -6.16 z M87.88 17.92 l0 -14.46 l5.54 0 c1.6 -0.02 3.22 -0.02 4.38 0.98 c0.9 0.78 1.26 1.84 1.26 2.78 c0 2.7 -2.32 3.34 -3.02 3.54 c2.18 0.2 2.34 1.44 2.6 3.32 c0.22 1.7 0.34 2.4 0.44 2.8 c0.16 0.64 0.28 0.8 0.44 1.04 l-3.42 0 c-0.14 -0.8 -0.58 -4.46 -0.78 -5.02 c-0.28 -0.82 -1.04 -0.82 -1.56 -0.82 l-2.72 0 l0 5.84 l-3.16 0 z M90.94 5.740000000000002 l0 4.04 l2.5 0 c0.36 0 1.08 0 1.58 -0.4 c0.22 -0.16 0.8 -0.66 0.8 -1.68 c0 -0.98 -0.48 -1.44 -0.76 -1.62 c-0.48 -0.34 -1.06 -0.34 -2.04 -0.34 l-2.08 0 z M101.5 17.92 l0 -14.46 l9.68 0 l0 2.36 l-6.58 0 l0 3.44 l6.16 0 l0 2.36 l-6.16 0 l0 3.9 l6.8 0 l0 2.4 l-9.9 0 z  M119.1 17.92 l0 -14.42 l4.78 0.02 c0.8 0 3.24 0.02 4.98 1.3 c1.82 1.34 2.46 3.62 2.46 5.68 c0 4.44 -2.38 6.76 -5.12 7.26 c-0.54 0.1 -1.14 0.16 -2.6 0.16 l-4.5 0 z M122.24 5.840000000000002 l0 9.7 c0.34 0.02 0.86 0.04 1.22 0.04 c1.32 0 2.46 -0.1 3.36 -1 c1.22 -1.22 1.3 -3.38 1.3 -4.08 c0 -2.04 -0.7 -3.92 -2.64 -4.46 c-0.64 -0.18 -1.46 -0.28 -3.24 -0.2 z M133.72 17.92 l0 -14.46 l9.68 0 l0 2.36 l-6.58 0 l0 3.44 l6.16 0 l0 2.36 l-6.16 0 l0 3.9 l6.8 0 l0 2.4 l-9.9 0 z M144.70000000000002 3.5200000000000014 l3.38 0 l3.78 11.34 l3.8 -11.34 l3.06 0 l-5.32 14.4 l-3.38 0 z M160.38 17.92 l0 -14.46 l9.68 0 l0 2.36 l-6.58 0 l0 3.44 l6.16 0 l0 2.36 l-6.16 0 l0 3.9 l6.8 0 l0 2.4 l-9.9 0 z M172.5 17.92 l0 -14.44 l3.16 0 l0 11.98 l6.2 0 l0 2.46 l-9.36 0 z M183.08 10.900000000000002 c0 -3.84 1.74 -7.74 6.94 -7.74 c1.54 0 3.66 0.36 5.08 1.96 c1.54 1.76 1.84 4.02 1.84 5.44 c0 2.1 -0.64 4.34 -1.82 5.66 c-1.6 1.8 -3.94 2.06 -5.14 2.06 c-1.9 0 -3.8 -0.6 -5.12 -1.98 c-1.58 -1.68 -1.78 -4.08 -1.78 -5.4 z M186.32000000000002 10.8 c0 1.38 0.22 2.92 1.08 4.04 c0.44 0.6 1.18 1.16 2.62 1.16 c1.26 0 2.12 -0.44 2.7 -1.34 c0.48 -0.72 0.98 -1.84 0.98 -4.14 c0 -0.7 -0.06 -1.7 -0.36 -2.58 c-0.6 -1.78 -1.82 -2.56 -3.3 -2.56 c-1.16 0 -2.08 0.48 -2.66 1.22 c-0.82 1 -1.06 2.56 -1.06 4.2 z M199.10000000000002 17.92 l0 -14.42 l4.46 0 c2.08 0 3.82 0.14 5.02 1.58 c0.76 0.92 0.88 1.96 0.88 2.7 c0 1.68 -0.7 3.1 -1.84 3.84 c-1.06 0.68 -2.52 0.68 -3.28 0.68 l-2.1 0 l0 5.62 l-3.14 0 z M202.16000000000003 5.840000000000002 l0 4.16 l1.24 0 c1 0 2.86 0 2.86 -2.2 c0 -1.96 -1.66 -1.96 -2.54 -1.96 l-1.56 0 z M211.22 17.92 l0 -14.46 l5.06 0 l3.06 10.52 l3.3 -10.52 l4.92 0 l0 14.46 l-3.08 0 l0 -12.4 l-3.94 12.4 l-2.56 0 l-3.86 -12.4 l0 12.4 l-2.9 0 z M230.38 17.92 l0 -14.46 l9.68 0 l0 2.36 l-6.58 0 l0 3.44 l6.16 0 l0 2.36 l-6.16 0 l0 3.9 l6.8 0 l0 2.4 l-9.9 0 z M242.56 17.92 l0 -14.46 l4.48 0 l5.42 11.38 l0 -11.38 l2.88 0 l0 14.46 l-4.26 0 l-5.6 -12 l0 12 l-2.92 0 z M261.26 17.92 l0 -12.06 l-4.3 0 l0 -2.4 l11.72 0 l0 2.4 l-4.3 0 l0 12.06 l-3.12 0 z">
          </path>
        </g>
      </svg>